<?xml version="1.0" encoding="UTF-8"?>
<svg id="Capa_2" data-name="Capa 2" xmlns="http://www.w3.org/2000/svg" viewBox="0 0 180.48 175.97">
  <defs>
    <style>
      .cls-1 {
        fill: #dc2318;
      }

      .cls-2 {
        fill: #e0983d;
      }

      .cls-3 {
        fill: #d2eb4b;
      }

      .cls-4 {
        fill: #e87a03;
      }

      .cls-5 {
        fill: #f79730;
      }

      .cls-6 {
        fill: #d59937;
      }
    </style>
  </defs>
  <g id="Capa_1-2" data-name="Capa 1">
    <path class="cls-6" d="m130.24,88.89c1.02.63,1.87.49,2.68.44,6.97-.42,13.97-.43,20.92-.11,13.67.64,22.83,10.11,25.76,22.2,1.68,6.93.98,13.6-2.22,19.95-2.99,5.95-7.88,9.75-14.1,11.93-4.01,1.41-8.19,1.72-12.38,1.75-9.25.07-18.5.14-27.74,0-13.3-.19-26.6.23-39.9.04-3.66-.05-7.32-.12-10.98-.23-2.99-.09-4.78-2.43-4.17-5.35.36-1.74,1.75-2.96,3.59-3.06,2.09-.12,4.17-.16,6.26-.12,5.62.11,11.24.05,16.86.03,4.27-.02,8.53-.12,12.8-.12,2.83,0,5.67.16,8.5.17,11.81.02,23.63.05,35.45-.01,3.31-.02,6.61-.33,9.74-1.62,6.17-2.54,9.69-7.1,10.41-13.71.72-6.56-.89-12.49-5.5-17.34-3.91-4.11-8.91-5.87-14.5-5.89-11.12-.04-22.25-.19-33.37.06-8.81.21-17.62-.05-26.42-.16-7.82-.1-15.55-1.22-22.95-4.01-10.91-4.12-18.56-11.59-23.19-22.25-2.79-6.42-4.52-13.18-6.57-19.84-1.55-5.04-3.15-10.05-6.18-14.49-2.87-4.22-6.73-7.09-11.33-9.15-4.5-2.02-9.21-2.87-14.11-2.9-1.49,0-2.97-.14-4.41-.46C1.17,24.2-.09,22.49,0,20.45c.11-2.3,1.34-3.78,3.52-4.02,5.53-.59,10.96.2,16.31,1.54,4.56,1.14,8.88,2.88,12.68,5.72,5.9,4.41,9.53,10.43,12.03,17.21.67,1.82.97,2,2.89,1.45,1.62-.46,1.73-.46,1.91,1.21.45,4.1,1.66,7.94,3.87,11.41,2.96,4.66,7,8.17,11.84,10.81,1.18.65,2.37.41,3.57.2,10.05-1.8,19.59-5.25,29.11-8.83,8.93-3.35,17.74-7.08,26.92-9.75,4.52-1.31,8.95-2.95,13.51-4.07,4.98-1.22,10.04-2.38,15.22-2.28,3.45.07,6.9.46,9.84,2.59,3.01,2.19,4.21,5.08,3.44,8.78-1.26,6.08-4.13,11.35-8.11,16.04-4.86,5.72-10.54,10.51-16.91,14.49-3.15,1.97-6.49,3.57-9.86,5.11-.46.21-.9.47-1.55.81Z"/>
    <path class="cls-3" d="m101.37,133.06c-4.23,0-8.47.11-12.69-.03-3.44-.11-6.88-.22-10.33-.18-2.4.03-4.79.14-7.18.27-2.82.15-6.53,3.5-6.59,7-.09,4.97,3.74,8.36,8.09,8.4,1,0,2,.18,3,.23.73.04,1.02.28.52.94-1.1,1.46-2.21,2.91-3.33,4.36-.49.64-1.18.81-1.97.82-4.34.01-8.57-.68-12.8-1.7-8.95-2.16-16.71-6.62-23.55-12.57-8.1-7.04-13.64-15.85-16.71-26.2-1.74-5.87-2.52-11.84-2.33-17.92.15-4.65.92-9.23,2.12-13.77,2.34-8.92,7.15-16.38,13.09-23.23,1-1.16,2.23-2.08,3.35-3.11.78-.72,1.28-.25,1.8.42,1.75,2.25,2.66,4.84,3.46,7.54,2.38,7.96,5.83,15.43,11.43,21.67,2.85,3.18,6.34,5.69,10.09,7.8,8.23,4.63,17.15,6.57,26.5,7.16,13.21.84,26.42.27,39.63.46,1.8.03,1.89.2,1.71,1.98-.48,4.84-1.53,9.54-3.18,14.11-1.84,5.12-4.54,9.79-7.5,14.32-.7,1.07-1.86,1.24-3.02,1.24-4.54.02-9.07,0-13.61,0h0Z"/>
    <path class="cls-4" d="m52.8,41.12c-.03-5.89,2.39-10.86,6.18-15.13,5.74-6.46,13.15-9.06,21.71-8.46,1.05.07,1.97.15,2.22-1.13.15-.8-1.11-2.28-2.02-2.46-.17-.03-.35-.05-.52-.03-4.17.41-8.01-.96-11.86-2.23-4.15-1.37-8.38-2.38-12.72-2.94-1.62-.21-3.21-.04-4.8.35-.45.11-1.06.58-1.4-.07-.28-.54.24-.98.56-1.37,1.36-1.61,2.93-3,4.76-4.04C61.15.06,67.67-.72,74.39,1.96c4.14,1.66,6.84,4.73,7.64,9.24.19,1.06.71,1.95,1.21,2.86.49.89.93.83,1.59.18.93-.93,1.92-1.83,3.37-1.73.48.03,1.19-.26,1.35.41.12.5-.49.75-.9,1-1.28.8-2.31,1.83-3.07,3.15-.55.96-.5,1.52.7,1.93,4.48,1.54,8.11,4.35,11.31,7.76.21.22.36.49.55.73.68.9.29,1.32-.66,1.51-1.15.23-2.34.38-3.45.74-6.15,1.99-11.79,8.56-12.11,15.75-.19,4.07.14,7.99,1.85,11.72.41.89.18,1.36-.73,1.67-4.8,1.63-9.73,2.75-14.66,3.87-1.14.26-2.15-.13-3.11-.72-6.64-4.1-11.04-9.76-12.27-17.63-.17-1.09-.12-2.17-.19-3.27Z"/>
    <path class="cls-5" d="m156.31,32.57c-.08,1.14-.19,2.44-.27,3.75-.07,1.08-.75,1.38-1.69,1.36-5.45-.08-10.76.88-16.04,2.1-3.55.82-3.26,1.2-5.27-2.4-2.19-3.91-5.66-6.47-9.95-7.8-3.13-.97-3.34-1.33-2.14-4.41,1.59-4.07,4.06-7.41,7.91-9.59,1.12-.63,1.13-1.23.47-2.25-1.27-1.95-2.71-3.74-4.42-5.31-1.72-1.6-3.76-2.33-6.11-2.04-1.02.13-1.57-.08-1.59-1.25-.04-1.86.26-2.46,1.51-2.42,3.34.12,5.86,1.76,7.83,4.35.53.69.98,1.44,1.48,2.16.17.24.3.63.64.57.47-.07.34-.54.39-.85.57-4.14,2.99-6.72,6.82-8.14,1.77-.65,3.53-.38,5.29-.08.69.12.77.64.57,1.21-.23.62-.57,1.21-1.1,1.6-1.64,1.2-3.11,2.71-5.21,3.14-.52.11-.81.45-1.04.9-.83,1.63-1.74,3.22-3.13,4.47-.25.23-.46.53-.6.84-.25.56-.46,1.22-.06,1.75.44.57,1.08.15,1.58,0,8.88-2.57,19.13,3.42,22.31,10.62,1.07,2.41,1.78,4.91,1.81,7.73Z"/>
    <path class="cls-1" d="m85.24,47.75c.2-5.47,1.95-10.22,6.84-13.31,3.43-2.17,7.12-3.03,11.11-1.65.36.12.72.38,1.08-.03.27-.3.28-.62.1-.97-.8-1.59-.96-3.34-1.29-5.04-.21-1.07-.42-2.14-.93-3.12-.15-.29-.4-.64-.1-.96.3-.32.65-.12.97,0,2.19.8,4.23,1.81,5.79,3.65,1.07,1.27,1.14,1.21,2.31.04,1.02-1.02,1.98-2.1,3.43-2.54.82-.25,1.59-.3,2,.63.44.99-.09,1.59-.94,1.96-3.28,1.44-4.97,4.1-5.77,7.45-.09.37-.21.85.12,1.11.37.29.76-.05,1.05-.28,6.1-4.86,14.25-2.19,18.28,3.11.71.94,1.5,1.82,1.8,3,.16.6.12,1.09-.64,1.31-3.26.92-6.53,1.8-9.75,2.84-7.6,2.45-15,5.45-22.44,8.31-3.17,1.22-6.37,2.39-9.53,3.64-.9.36-1.35.14-1.72-.71-1.14-2.68-1.66-5.49-1.77-8.44Z"/>
    <path class="cls-2" d="m154.78,162.2c0,7.63-6.2,13.78-13.86,13.76-7.49-.01-13.74-6.44-13.72-14.11.02-7.62,6.54-14.08,14.33-13.77,7.45.3,13.53,6.56,13.25,14.11Zm-20.44-.19c-.05,3.64,2.86,6.5,6.67,6.57,3.4.06,6.59-3.01,6.64-6.4.06-3.48-3.31-6.69-7.09-6.8-2.39-.07-6.44,3.22-6.22,6.63Z"/>
    <path class="cls-2" d="m102.16,162.1c-.01,7.77-6.19,14-14.01,13.83-6.99-.16-13.66-5.78-13.57-13.92.09-7.71,6.28-13.93,14.08-13.8,7.64.13,13.74,6.34,13.5,13.89Zm-13.72-6.53c-3.57-.03-6.64,2.93-6.7,6.45-.06,3.63,2.76,6.54,6.36,6.57,3.79.02,6.88-2.74,6.94-6.2.07-3.8-2.82-6.78-6.61-6.81Z"/>
  </g>
</svg>