<?xml version="1.0" encoding="UTF-8"?>
<svg id="Capa_2" data-name="Capa 2" xmlns="http://www.w3.org/2000/svg" viewBox="0 0 544.49 175.97">
  <defs>
    <style>
      .cls-1 {
        fill: #fff;
      }

      .cls-2 {
        fill: #dc2318;
      }

      .cls-3 {
        fill: #e0983d;
      }

      .cls-4 {
        fill: #d2eb4b;
      }

      .cls-5 {
        fill: #e87a03;
      }

      .cls-6 {
        fill: #f79730;
      }

      .cls-7 {
        fill: #d59937;
      }
    </style>
  </defs>
  <g id="Capa_1-2" data-name="Capa 1">
    <path class="cls-7" d="m130.24,88.89c1.02.63,1.87.49,2.68.44,6.97-.42,13.97-.43,20.92-.11,13.67.64,22.83,10.11,25.76,22.2,1.68,6.93.98,13.6-2.22,19.95-2.99,5.95-7.88,9.75-14.1,11.93-4.01,1.41-8.19,1.72-12.38,1.75-9.25.07-18.5.14-27.74,0-13.3-.19-26.6.23-39.9.04-3.66-.05-7.32-.12-10.98-.23-2.99-.09-4.78-2.43-4.17-5.35.36-1.74,1.75-2.96,3.59-3.06,2.09-.12,4.17-.16,6.26-.12,5.62.11,11.24.05,16.86.03,4.27-.02,8.53-.12,12.8-.12,2.83,0,5.67.16,8.5.17,11.81.02,23.63.05,35.45-.01,3.31-.02,6.61-.33,9.74-1.62,6.17-2.54,9.69-7.1,10.41-13.71.72-6.56-.89-12.49-5.5-17.34-3.91-4.11-8.91-5.87-14.5-5.89-11.12-.04-22.25-.19-33.37.06-8.81.21-17.62-.05-26.42-.16-7.82-.1-15.55-1.22-22.95-4.01-10.91-4.12-18.56-11.59-23.19-22.25-2.79-6.42-4.52-13.18-6.57-19.84-1.55-5.04-3.15-10.05-6.18-14.49-2.87-4.22-6.73-7.09-11.33-9.15-4.5-2.02-9.21-2.87-14.11-2.9-1.49,0-2.97-.14-4.41-.46C1.17,24.2-.09,22.49,0,20.45c.11-2.3,1.34-3.78,3.52-4.02,5.53-.59,10.96.2,16.31,1.54,4.56,1.14,8.88,2.88,12.68,5.72,5.9,4.41,9.53,10.43,12.03,17.21.67,1.82.97,2,2.89,1.45,1.62-.46,1.73-.46,1.91,1.21.45,4.1,1.66,7.94,3.87,11.41,2.96,4.66,7,8.17,11.84,10.81,1.18.65,2.37.41,3.57.2,10.05-1.8,19.59-5.25,29.11-8.83,8.93-3.35,17.74-7.08,26.92-9.75,4.52-1.31,8.95-2.95,13.51-4.07,4.98-1.22,10.04-2.38,15.22-2.28,3.45.07,6.9.46,9.84,2.59,3.01,2.19,4.21,5.08,3.44,8.78-1.26,6.08-4.13,11.35-8.11,16.04-4.86,5.72-10.54,10.51-16.91,14.49-3.15,1.97-6.49,3.57-9.86,5.11-.46.21-.9.47-1.55.81Z"/>
    <path class="cls-4" d="m101.37,133.06c-4.23,0-8.47.11-12.69-.03-3.44-.11-6.88-.22-10.33-.18-2.4.03-4.79.14-7.18.27-2.82.15-6.53,3.5-6.59,7-.09,4.97,3.74,8.36,8.09,8.4,1,0,2,.18,3,.23.73.04,1.02.28.52.94-1.1,1.46-2.21,2.91-3.33,4.36-.49.64-1.18.81-1.97.82-4.34.01-8.57-.68-12.8-1.7-8.95-2.16-16.71-6.62-23.55-12.57-8.1-7.04-13.64-15.85-16.71-26.2-1.74-5.87-2.52-11.84-2.33-17.92.15-4.65.92-9.23,2.12-13.77,2.34-8.92,7.15-16.38,13.09-23.23,1-1.16,2.23-2.08,3.35-3.11.78-.72,1.28-.25,1.8.42,1.75,2.25,2.66,4.84,3.46,7.54,2.38,7.96,5.83,15.43,11.43,21.67,2.85,3.18,6.34,5.69,10.09,7.8,8.23,4.63,17.15,6.57,26.5,7.16,13.21.84,26.42.27,39.63.46,1.8.03,1.89.2,1.71,1.98-.48,4.84-1.53,9.54-3.18,14.11-1.84,5.12-4.54,9.79-7.5,14.32-.7,1.07-1.86,1.24-3.02,1.24-4.54.02-9.07,0-13.61,0h0Z"/>
    <path class="cls-5" d="m52.8,41.12c-.03-5.89,2.39-10.86,6.18-15.13,5.74-6.46,13.15-9.06,21.71-8.46,1.05.07,1.97.15,2.22-1.13.15-.8-1.11-2.28-2.02-2.46-.17-.03-.35-.05-.52-.03-4.17.41-8.01-.96-11.86-2.23-4.15-1.37-8.38-2.38-12.72-2.94-1.62-.21-3.21-.04-4.8.35-.45.11-1.06.58-1.4-.07-.28-.54.24-.98.56-1.37,1.36-1.61,2.93-3,4.76-4.04C61.15.06,67.67-.72,74.39,1.96c4.14,1.66,6.84,4.73,7.64,9.24.19,1.06.71,1.95,1.21,2.86.49.89.93.83,1.59.18.93-.93,1.92-1.83,3.37-1.73.48.03,1.19-.26,1.35.41.12.5-.49.75-.9,1-1.28.8-2.31,1.83-3.07,3.15-.55.96-.5,1.52.7,1.93,4.48,1.54,8.11,4.35,11.31,7.76.21.22.36.49.55.73.68.9.29,1.32-.66,1.51-1.15.23-2.34.38-3.45.74-6.15,1.99-11.79,8.56-12.11,15.75-.19,4.07.14,7.99,1.85,11.72.41.89.18,1.36-.73,1.67-4.8,1.63-9.73,2.75-14.66,3.87-1.14.26-2.15-.13-3.11-.72-6.64-4.1-11.04-9.76-12.27-17.63-.17-1.09-.12-2.17-.19-3.27Z"/>
    <path class="cls-6" d="m156.31,32.57c-.08,1.14-.19,2.44-.27,3.75-.07,1.08-.75,1.38-1.69,1.36-5.45-.08-10.76.88-16.04,2.1-3.55.82-3.26,1.2-5.27-2.4-2.19-3.91-5.66-6.47-9.95-7.8-3.13-.97-3.34-1.33-2.14-4.41,1.59-4.07,4.06-7.41,7.91-9.59,1.12-.63,1.13-1.23.47-2.25-1.27-1.95-2.71-3.74-4.42-5.31-1.72-1.6-3.76-2.33-6.11-2.04-1.02.13-1.57-.08-1.59-1.25-.04-1.86.26-2.46,1.51-2.42,3.34.12,5.86,1.76,7.83,4.35.53.69.98,1.44,1.48,2.16.17.24.3.63.64.57.47-.07.34-.54.39-.85.57-4.14,2.99-6.72,6.82-8.14,1.77-.65,3.53-.38,5.29-.08.69.12.77.64.57,1.21-.23.62-.57,1.21-1.1,1.6-1.64,1.2-3.11,2.71-5.21,3.14-.52.11-.81.45-1.04.9-.83,1.63-1.74,3.22-3.13,4.47-.25.23-.46.53-.6.84-.25.56-.46,1.22-.06,1.75.44.57,1.08.15,1.58,0,8.88-2.57,19.13,3.42,22.31,10.62,1.07,2.41,1.78,4.91,1.81,7.73Z"/>
    <path class="cls-2" d="m85.24,47.75c.2-5.47,1.95-10.22,6.84-13.31,3.43-2.17,7.12-3.03,11.11-1.65.36.12.72.38,1.08-.03.27-.3.28-.62.1-.97-.8-1.59-.96-3.34-1.29-5.04-.21-1.07-.42-2.14-.93-3.12-.15-.29-.4-.64-.1-.96.3-.32.65-.12.97,0,2.19.8,4.23,1.81,5.79,3.65,1.07,1.27,1.14,1.21,2.31.04,1.02-1.02,1.98-2.1,3.43-2.54.82-.25,1.59-.3,2,.63.44.99-.09,1.59-.94,1.96-3.28,1.44-4.97,4.1-5.77,7.45-.09.37-.21.85.12,1.11.37.29.76-.05,1.05-.28,6.1-4.86,14.25-2.19,18.28,3.11.71.94,1.5,1.82,1.8,3,.16.6.12,1.09-.64,1.31-3.26.92-6.53,1.8-9.75,2.84-7.6,2.45-15,5.45-22.44,8.31-3.17,1.22-6.37,2.39-9.53,3.64-.9.36-1.35.14-1.72-.71-1.14-2.68-1.66-5.49-1.77-8.44Z"/>
    <path class="cls-3" d="m154.78,162.2c0,7.63-6.2,13.78-13.86,13.76-7.49-.01-13.74-6.44-13.72-14.11.02-7.62,6.54-14.08,14.33-13.77,7.45.3,13.53,6.56,13.25,14.11Zm-20.44-.19c-.05,3.64,2.86,6.5,6.67,6.57,3.4.06,6.59-3.01,6.64-6.4.06-3.48-3.31-6.69-7.09-6.8-2.39-.07-6.44,3.22-6.22,6.63Z"/>
    <path class="cls-3" d="m102.16,162.1c-.01,7.77-6.19,14-14.01,13.83-6.99-.16-13.66-5.78-13.57-13.92.09-7.71,6.28-13.93,14.08-13.8,7.64.13,13.74,6.34,13.5,13.89Zm-13.72-6.53c-3.57-.03-6.64,2.93-6.7,6.45-.06,3.63,2.76,6.54,6.36,6.57,3.79.02,6.88-2.74,6.94-6.2.07-3.8-2.82-6.78-6.61-6.81Z"/>
    <g>
      <path class="cls-1" d="m393.54,106.53l-.74-5.28c-.89-6.34-1.81-12.9-2.78-19.35-.01-.15,0-.31.01-.48.16-2.93-1.31-3.74-2.57-3.89-2.47-.31-3.39,1.99-3.78,2.97-.07.19-.14.37-.22.53-2.25,4.54-4.48,9.09-6.71,13.64l-2.2,4.5c-.05-.08-.09-.17-.14-.25-.85-1.54-1.65-2.99-2.31-4.51-1.63-3.72-3.52-7.35-5.34-10.85-.79-1.52-1.58-3.05-2.39-4.65-.93-1.87-2.26-2.03-3.21-1.83-1.29.27-2.05,1.21-2.26,2.88-.12.93-.23,1.86-.34,2.79-.1.84-.2,1.68-.31,2.52-.34,2.61-.74,5.27-1.13,7.83-.72,4.74-1.46,9.63-1.86,14.53-.23,2.81,1.25,3.72,2.53,3.99,2.05.44,3.75-.56,4.33-2.56.18-.63.32-1.28.4-1.92l.63-5.04c.32-2.59.65-5.18.98-7.77,1.75,3.61,3.49,7.22,5.23,10.82l1.96,4.05c.04.08.07.17.11.25.25.62.93,2.27,2.85,2.34.05,0,.09,0,.14,0,2.18,0,2.96-2.03,3.24-2.78,1.24-3.24,2.87-6.43,4.44-9.51.86-1.69,1.75-3.42,2.58-5.18.16,1.27.28,2.56.41,3.89.19,1.98.38,4.02.72,6.05.07.39.11.77.16,1.16.15,1.17.32,2.5.89,3.81.8,1.81,2.42,2.73,4.24,2.39,1.18-.22,2.59-1.02,2.57-3.55v-.31s-.04-.48-.04-.48c-.02-.28-.05-.51-.08-.75Z"/>
      <path class="cls-1" d="m458.49,93.55c2.55-3.1,3.07-6.85,1.5-10.85-1.01-2.57-3.44-5.69-9.26-5.98-1.46-.07-2.92-.08-4.33-.08-1.68,0-3.26-.01-4.85-.12-2.53-.17-3.92,1.04-4.15,3.58-.28,3.06-.25,6.04-.23,8.93.01,1.67.03,3.24-.02,4.79v4c0,3.16,0,6.08,0,9.01.01,2.81,1.6,4.68,4.04,4.75,1.27.05,2.06-.46,2.51-.88,1.04-.99,1.06-2.35,1.08-3.24,0-.13,0-.26.01-.39.15-2.66,0-5.3-.17-7.87,2.45,3.06,4.88,6.23,7.23,9.29l.42.54c1.24,1.61,2.79,2.47,4.62,2.53h.11c.11,0,.25.01.4.01.91,0,2.46-.18,3.18-1.82.76-1.71-.43-3.01-.82-3.44-.06-.06-.11-.12-.16-.18l-2.09-2.63c-1.71-2.16-3.47-4.38-5.19-6.59,1.91-.35,4.36-1.14,6.17-3.35Zm-13.64-8.64c0-.43,0-.85.03-1.17.46-.01,1.14,0,1.73.02,1.47.04,2.92.17,4.32.39,1.31.21,2.29.99,2.4,1.91.18,1.56-.54,2.87-1.88,3.42-1.64.67-3.49.59-5.46.5-.38-.02-.75-.03-1.12-.05,0-.73,0-1.46,0-2.19v-1.09s-.01-1.74-.01-1.74Z"/>
      <path class="cls-1" d="m344.32,95.59c3.53-2.19,5.2-6.26,4.46-10.88-.62-3.84-3.52-6.76-7.58-7.61-2.27-.48-4.52-.52-6.69-.55-1.33-.02-2.58-.05-3.83-.16-1.58-.15-2.97-.19-4.02.77-1.12,1.02-1.12,2.55-1.13,4.03v2.74c-.01,6.4-.02,12.8,0,19.21,0,.49-.04,1-.09,1.55-.1,1.07-.2,2.29.04,3.59.56,2.97,2.67,3.37,3.77,3.37.08,0,.16,0,.23,0,2.09-.11,3.46-1.61,3.49-3.84.02-1.27.02-2.54.01-3.8l-.06-3.57h0c0-.39,0-.77,0-1.16l1.86,2.4c1.92,2.49,3.84,4.98,5.79,7.45.54.68,2.17,2.76,4.98,2.32.06,0,.12,0,.18,0,.51,0,2.07.02,2.84-1.5.58-1.15.33-2.3-.74-3.42-.04-.04-.08-.09-.12-.13-1.13-1.44-2.27-2.88-3.41-4.32-1.37-1.73-2.73-3.46-4.09-5.19.13-.02.26-.04.38-.07,1.15-.2,2.46-.42,3.73-1.21Zm-11.34-10.7h0c0-.11,0-.22,0-.32,0-.28,0-.59,0-.85.45,0,1.08,0,1.69.02l.74.02c1.09.02,2.25.14,3.57.35,1.39.23,2.17,1.04,2.38,2.49.17,1.21-.44,2.23-1.68,2.81-1.62.75-3.49.66-5.46.56-.41-.02-.82-.04-1.22-.05,0-.65,0-1.29,0-1.94v-1.09s0-2,0-2Z"/>
      <path class="cls-1" d="m428.14,101.15c-3.23-7.12-6.57-14.48-10.14-21.61h0c-.27-.54-.55-1-.84-1.4-.79-1.07-1.69-1.56-2.71-1.45-1.02.11-1.82.79-2.38,2.04-.84,1.86-1.75,3.74-2.62,5.56-1.09,2.26-2.21,4.6-3.25,6.96-1.39,3.15-2.91,6.33-4.38,9.4-.91,1.91-1.83,3.82-2.72,5.74-.03.07-.07.14-.11.22-.29.57-.84,1.63-.44,2.84.17.53.6,1.27,1.64,1.79.63.31,1.26.46,1.87.46,1.28,0,2.45-.65,3.25-1.88.51-.78.91-1.46,1.23-2.13.5-1.02.99-2.05,1.47-3.08.35-.75.71-1.5,1.07-2.25.33-.68.67-.91,1.37-.91h.03c2.9.02,5.79.02,8.69.02h0c.74,0,1.02.18,1.3.85.82,1.93,1.73,3.89,2.7,5.8.51,1,1.56,3.07,4.16,3.46,1.9.22,2.84-.64,3.23-1.17.5-.68.91-1.89.06-3.75-.84-1.83-1.67-3.66-2.5-5.49Zm-11.46-6.77v-.07h-2c-.34,0-.69,0-1.03,0-.25,0-.5,0-.75,0,.66-1.37,1.32-2.75,1.97-4.13.67,1.38,1.33,2.79,1.97,4.19-.05,0-.1,0-.15,0Z"/>
      <path class="cls-1" d="m312.57,83.73c1,0,2.01,0,3.01-.01,3.27,0,3.84-1.98,3.88-3.16.06-1.39-.5-2.27-.97-2.77-.49-.51-1.39-1.13-2.87-1.13-5.04-.02-10.09,0-15.14.02-1.26,0-2.01.53-2.41.98-.6.66-.86,1.54-.76,2.63.25,2.84.19,5.73.14,8.29-.03,1.7-.06,3.3,0,4.59,0,1.75,0,3.36,0,4.86,0,3.23.02,6.01-.03,8.77-.02,1.31-.04,2.94,1.11,4.02.79.74,1.82.92,2.83.92.36,0,.72-.02,1.07-.05,2.79-.22,5.65-.26,8.32-.26h1.84c1.05,0,2.1,0,3.15,0,2.36-.02,3.4-1.52,3.58-2.92.23-1.75-.73-3.26-2.43-3.86-.81-.28-1.62-.29-2.28-.29-3.25-.02-6.51-.04-9.76-.03.04-1.38.03-2.75.03-4.13,0-.89,0-1.79,0-2.68,0-.46.02-.83.04-1.09.38-.02.88-.01,1.09,0,.07,0,.14.02.21.03.23.03.47.06.7.07l3.52.06c1.71.03,3.42.06,5.14.09,1.61.04,2.49-.61,2.95-1.15,1.06-1.24.76-2.86.67-3.39-.2-1.08-.97-2.9-3.92-2.9h-2.42c-2.6-.02-5.29-.03-7.95.01-.02,0-.03,0-.05,0,.09-1.85.09-3.69,0-5.46,0-.01,0-.02,0-.04.05,0,.1,0,.16,0,2.52.05,5.07.04,7.54.02Z"/>
      <path class="cls-1" d="m490.62,105.88c-.25-.41-.56-.7-.76-.9l-11.36-11.82c-.18-.19-.32-.34-.42-.46.09-.09.19-.2.33-.33,1.2-1.15,2.46-2.29,3.67-3.39.94-.86,1.88-1.71,2.81-2.58,1.59-1.49,3.12-2.99,4.94-4.78.44-.44,1.79-1.77,1.09-3.59-.36-.92-1.23-1.97-3.34-1.74-.07,0-.13.02-.19.02-2.62.05-4.33,1.69-5.46,2.78-1.28,1.23-2.56,2.48-3.83,3.72-.85.83-1.7,1.66-2.55,2.49,0-1.1,0-2.21,0-3.31v-1.99c.01-3.17-2.39-3.6-3.13-3.66-2.22-.16-3.8.99-4.16,3.02-.13.76-.13,1.49-.14,2.18,0,3.2,0,6.39,0,9.59v.95h-.01v5.79c0,3.28.01,6.55-.01,9.83,0,1.14.32,2.05.98,2.71.92.92,2.15,1.01,3.03,1.02,1.57,0,2.46-.66,2.93-1.2.45-.53.95-1.46.75-2.9-.23-1.62-.23-3.27-.22-5.02,0-.58,0-1.17,0-1.76,2.44,2.57,4.87,5.16,7.28,7.75.15.16.29.32.43.49.78.89,1.85,2.12,3.62,2.46l.3.06c.5.1,1.17.24,1.88.24,1,0,2.06-.28,2.79-1.32.88-1.25.57-2.59-.91-3.99-.12-.11-.29-.28-.35-.35Z"/>
      <path class="cls-1" d="m513.21,83.75c1.13,0,2.26,0,3.39,0,.45-.01,1.88,0,2.88-1,.42-.42.92-1.18.9-2.39-.01-1.16-.41-2.15-1.15-2.85-.5-.47-1.4-1.03-2.78-.97-5.05.21-9.67.15-14.14-.17-1.25-.09-2.27.22-3.01.93-1.16,1.11-1.11,2.75-1.09,3.28.27,8.15.28,16.77.02,27.15-.02.77.05,1.9.9,2.76.81.82,1.85.93,2.58.93h.06c1.7-.01,3.4-.01,5.1,0h9.64s0,0,0,0c2.66,0,3.61-1.79,3.62-3.32,0-1.44-.56-2.3-1.04-2.77-.46-.45-1.27-.98-2.59-.98-.02,0-.04,0-.07,0-.28,0-.56,0-.84,0l-3.14-.02c-2.22-.01-4.45-.02-6.67,0,.03-1.48.03-2.96.02-4.44,0-.97-.01-1.94,0-2.92,0-.17,0-.42,0-.67.17,0,.36.02.58.03,3.71.26,7.01.36,10.11.32,3.15-.05,3.58-2.42,3.63-3.15.17-2.2-1-3.79-3.05-4.16-.77-.14-1.52-.14-2.18-.15h-1.46c-2.54-.02-5.08-.03-7.62,0-.01,0-.04,0-.04,0v-.02c.08-1.86.07-3.69,0-5.44.02,0,.04,0,.06,0,2.45.04,4.93.04,7.34.03Z"/>
      <path class="cls-1" d="m259.09,90.13v-2.87c0-2.02.01-3.85,0-5.67v-.21c0-1.18-.02-2.79-1.2-3.93-.49-.47-1.35-1.03-2.78-.97-1.51.05-2.66.82-3.15,2.11-.33.85-.3,1.73-.27,2.43,0,.16.01.32,0,.47-.02,1.74-.02,3.47-.03,5.21-.01,4.48-.03,9.11-.31,13.63-.15,2.44-2.33,4.91-4.4,4.99-2.54.1-4.77-1.74-5.04-4.18-.36-3.23-.66-6.4-.39-9.53.33-3.8.28-7.83-.15-11.96-.31-2.95-2.57-3.24-3.25-3.26-.04,0-.08,0-.12,0-1.72,0-3.08,1.08-3.48,2.79-.17.71-.19,1.39-.19,1.91v5.04c-.03,4.76-.04,9.67,0,14.52.06,6.54,4.5,11.05,11.57,11.75.36.04.72.05,1.08.05,5.27,0,10.02-3.82,11.3-9.26.86-3.66.83-7.33.8-10.56,0-.86-.02-1.69,0-2.5Z"/>
      <path class="cls-1" d="m280.49,76.7h0c-1.69-.09-3.38-.08-5.01-.06-1.06,0-2.11.02-3.17,0-1.69-.03-3.17.03-4.22,1.07-1.05,1.04-1.12,2.46-1.11,4.21.03,3.76.02,7.52.02,11.28v6.67s.11,0,.11,0v.81c.02,2.21.04,4.5-.04,6.73-.04,1.29.27,2.27.95,3,.67.72,1.61,1.08,2.87,1.12.05,0,.1,0,.16,0,1.06,0,1.92-.32,2.56-.95.93-.92,1.04-2.14,1.03-3.1-.02-1.39-.02-2.77-.02-4.16,0-1.96,0-3.98-.05-5.98,3.13.17,5.88-.09,8.4-.79,2.36-.65,5.63-1.93,6.82-5.54,1.26-3.83.95-7.4-.88-10.07-1.75-2.55-4.74-4.06-8.42-4.25Zm2.62,10.26c-.04,1.04-.58,2.03-1.32,2.41h0c-1.49.76-3.26.82-5.13.88l-1.39.03c-.32,0-.64,0-.96,0,0-1.04,0-2.08-.01-3.12,0-1.1,0-2.2-.01-3.33,2.68-.12,5.68.04,8.22,1.57.59.36.61,1.27.6,1.55Z"/>
      <path class="cls-1" d="m219.49,90.65c-.6-.44-1.2-.88-1.78-1.34-.3-.24-.62-.48-.93-.71-.86-.64-1.6-1.19-2.08-1.9-.75-1.1-.82-2.25-.19-2.87.6-.58,2.26-.66,3.2.06.24.18.45.39.66.59.28.27.61.58.98.87,1.77,1.36,3.96,1.41,5.44.1.57-.5,2.24-2.36,0-5.36-2.11-2.82-4.95-4.19-8.73-4.19h-.01c-4.05.08-7.13,2.03-8.66,5.5-1.09,2.46-1.6,6.26,2.13,10.45,1.24,1.4,2.65,2.7,4.19,3.89l.2.15c1.59,1.22,3.09,2.38,4.22,3.82,1.03,1.31,1.57,3.17,0,4.45-1.63,1.34-3.66,1.12-5.05-.55-.12-.15-.24-.3-.37-.46-.36-.46-.76-.98-1.3-1.44-1.68-1.45-3.62-1.61-5.09-.41-.69.56-2.09,2.17-.38,4.94,2.23,3.62,5.49,5.73,9.4,6.09.36.03.71.05,1.05.05,3.67,0,6.83-1.83,9.18-5.35,1.94-2.9,2-6.33.18-9.9-1.52-2.99-3.94-4.77-6.28-6.49Z"/>
      <path class="cls-1" d="m543.68,77.93c-.7-.81-1.75-1.27-3.13-1.36-5.7-.38-10.07-.34-14.17.13-1.9.22-3.13,1.48-3.2,3.3-.08,1.98,1.13,3.44,3.07,3.72,1.04.15,2.16.29,3.33.33.16,0,.37.01.57.02,0,.19,0,.37,0,.5,0,7.62.01,15.24-.02,22.86-.01,3.44,2.31,3.98,3.7,4h.07c1.15,0,2.06-.33,2.71-.98.92-.91,1.01-2.13,1-2.97-.03-2.78-.02-5.56-.02-8.33v-12.49c0-1.09.01-2.21.1-2.72.49-.11,1.56-.16,2.62-.22h.24c2.43-.1,3.75-1.16,3.92-3.14.11-1.3-.37-2.16-.79-2.65Z"/>
    </g>
  </g>
</svg>